<mxfile host="Electron" agent="Mozilla/5.0 (Windows NT 10.0; Win64; x64) AppleWebKit/537.36 (KHTML, like Gecko) draw.io/25.0.2 Chrome/128.0.6613.186 Electron/32.2.5 Safari/537.36" version="25.0.2">
  <diagram name="Page-1" id="rowEF2O978AL6KbjrWxw">
    <mxGraphModel dx="1195" dy="570" grid="1" gridSize="10" guides="1" tooltips="1" connect="1" arrows="1" fold="1" page="1" pageScale="1" pageWidth="1169" pageHeight="827" math="0" shadow="0">
      <root>
        <mxCell id="0" />
        <mxCell id="1" parent="0" />
        <mxCell id="_y7poPwMKWdNdrLzsewM-10" value="&lt;font style=&quot;font-size: 16px;&quot;&gt;Serveur&lt;/font&gt;" style="swimlane;whiteSpace=wrap;html=1;rounded=0;labelBackgroundColor=none;fillColor=#FAE5C7;strokeColor=#0F8B8D;fontColor=#143642;" parent="1" vertex="1">
          <mxGeometry x="509" y="188" width="225" height="451" as="geometry" />
        </mxCell>
        <mxCell id="_y7poPwMKWdNdrLzsewM-11" value="" style="ellipse;html=1;shape=startState;fillColor=#ff4d4d;strokeColor=#B20000;rounded=0;labelBackgroundColor=none;fontColor=#ffffff;" parent="_y7poPwMKWdNdrLzsewM-10" vertex="1">
          <mxGeometry x="85" y="52" width="30" height="30" as="geometry" />
        </mxCell>
        <mxCell id="_y7poPwMKWdNdrLzsewM-12" value="" style="edgeStyle=orthogonalEdgeStyle;html=1;verticalAlign=bottom;endArrow=open;endSize=8;strokeColor=#A8201A;rounded=0;labelBackgroundColor=none;fontColor=default;entryX=0.5;entryY=0;entryDx=0;entryDy=0;" parent="_y7poPwMKWdNdrLzsewM-10" source="_y7poPwMKWdNdrLzsewM-11" edge="1">
          <mxGeometry relative="1" as="geometry">
            <mxPoint x="100" y="112" as="targetPoint" />
          </mxGeometry>
        </mxCell>
        <mxCell id="_y7poPwMKWdNdrLzsewM-20" style="edgeStyle=orthogonalEdgeStyle;rounded=0;orthogonalLoop=1;jettySize=auto;html=1;entryX=1;entryY=0.5;entryDx=0;entryDy=0;startArrow=open;startFill=0;endArrow=none;endFill=0;dashed=1;dashPattern=8 8;" parent="_y7poPwMKWdNdrLzsewM-10" target="Q2lX11om1wPqDBaOUwIq-25" edge="1">
          <mxGeometry relative="1" as="geometry">
            <mxPoint x="230" y="402" as="sourcePoint" />
            <mxPoint x="160" y="391.5" as="targetPoint" />
            <Array as="points">
              <mxPoint x="170" y="393" />
              <mxPoint x="170" y="242" />
            </Array>
          </mxGeometry>
        </mxCell>
        <mxCell id="Q2lX11om1wPqDBaOUwIq-7" value="Démarrer le serveur" style="whiteSpace=wrap;html=1;rounded=0;labelBackgroundColor=none;fillColor=#FAE5C7;strokeColor=#0F8B8D;fontColor=#143642;" vertex="1" parent="_y7poPwMKWdNdrLzsewM-10">
          <mxGeometry x="40" y="112" width="120" height="60" as="geometry" />
        </mxCell>
        <mxCell id="_y7poPwMKWdNdrLzsewM-64" value="Ordres" style="html=1;whiteSpace=wrap;rounded=0;labelBackgroundColor=none;fillColor=#FAE5C7;strokeColor=#0F8B8D;fontColor=#143642;" parent="_y7poPwMKWdNdrLzsewM-10" vertex="1">
          <mxGeometry x="190" y="376.5" width="80" height="45" as="geometry" />
        </mxCell>
        <mxCell id="Q2lX11om1wPqDBaOUwIq-25" value="Pour le robot ?" style="rhombus;whiteSpace=wrap;html=1;fillColor=#ffe6cc;strokeColor=#d79b00;" vertex="1" parent="_y7poPwMKWdNdrLzsewM-10">
          <mxGeometry x="50" y="192.25" width="100" height="99" as="geometry" />
        </mxCell>
        <mxCell id="Q2lX11om1wPqDBaOUwIq-26" value="" style="edgeStyle=orthogonalEdgeStyle;rounded=0;orthogonalLoop=1;jettySize=auto;html=1;labelBackgroundColor=none;strokeColor=#A8201A;fontColor=default;entryX=0.5;entryY=0;entryDx=0;entryDy=0;exitX=0.5;exitY=1;exitDx=0;exitDy=0;endArrow=block;endFill=1;" edge="1" parent="_y7poPwMKWdNdrLzsewM-10" source="Q2lX11om1wPqDBaOUwIq-7" target="Q2lX11om1wPqDBaOUwIq-25">
          <mxGeometry relative="1" as="geometry">
            <mxPoint x="610" y="360" as="sourcePoint" />
            <mxPoint x="610" y="550" as="targetPoint" />
          </mxGeometry>
        </mxCell>
        <mxCell id="Q2lX11om1wPqDBaOUwIq-37" value="[Non]" style="text;html=1;align=center;verticalAlign=middle;whiteSpace=wrap;rounded=0;fontColor=#143642;labelBackgroundColor=none;" vertex="1" parent="_y7poPwMKWdNdrLzsewM-10">
          <mxGeometry x="46" y="322" width="60" height="30" as="geometry" />
        </mxCell>
        <mxCell id="Q2lX11om1wPqDBaOUwIq-38" value="[Oui]" style="text;html=1;align=center;verticalAlign=middle;whiteSpace=wrap;rounded=0;fontColor=#143642;labelBackgroundColor=none;" vertex="1" parent="_y7poPwMKWdNdrLzsewM-10">
          <mxGeometry x="150" y="211" width="40" height="30" as="geometry" />
        </mxCell>
        <mxCell id="Q2lX11om1wPqDBaOUwIq-30" value="Ordres" style="html=1;whiteSpace=wrap;rounded=0;labelBackgroundColor=none;fillColor=#FAE5C7;strokeColor=#0F8B8D;fontColor=#143642;" vertex="1" parent="_y7poPwMKWdNdrLzsewM-10">
          <mxGeometry x="-20" y="332" width="50" height="31.5" as="geometry" />
        </mxCell>
        <mxCell id="_y7poPwMKWdNdrLzsewM-1" value="&lt;font style=&quot;font-size: 16px;&quot;&gt;Navigateur&lt;/font&gt;" style="swimlane;whiteSpace=wrap;html=1;rounded=0;labelBackgroundColor=none;fillColor=#FAE5C7;strokeColor=#0F8B8D;fontColor=#143642;" parent="1" vertex="1">
          <mxGeometry x="4" y="188" width="505" height="451" as="geometry" />
        </mxCell>
        <mxCell id="_y7poPwMKWdNdrLzsewM-3" value="" style="ellipse;html=1;shape=startState;fillColor=#ff4d4d;strokeColor=#B20000;rounded=0;labelBackgroundColor=none;fontColor=#ffffff;" parent="_y7poPwMKWdNdrLzsewM-1" vertex="1">
          <mxGeometry x="75" y="40" width="30" height="30" as="geometry" />
        </mxCell>
        <mxCell id="_y7poPwMKWdNdrLzsewM-4" value="" style="edgeStyle=orthogonalEdgeStyle;html=1;verticalAlign=bottom;endArrow=open;endSize=8;strokeColor=#A8201A;rounded=0;labelBackgroundColor=none;fontColor=default;entryX=0.5;entryY=0;entryDx=0;entryDy=0;" parent="_y7poPwMKWdNdrLzsewM-1" source="_y7poPwMKWdNdrLzsewM-3" edge="1" target="_y7poPwMKWdNdrLzsewM-5">
          <mxGeometry relative="1" as="geometry">
            <mxPoint x="90" y="140" as="targetPoint" />
          </mxGeometry>
        </mxCell>
        <mxCell id="_y7poPwMKWdNdrLzsewM-5" value="Récupérer&lt;span style=&quot;background-color: initial;&quot;&gt;&amp;nbsp;les images de la caméra&lt;/span&gt;" style="rounded=0;whiteSpace=wrap;html=1;labelBackgroundColor=none;fillColor=#FAE5C7;strokeColor=#0F8B8D;fontColor=#143642;" parent="_y7poPwMKWdNdrLzsewM-1" vertex="1">
          <mxGeometry x="30" y="110" width="120" height="60" as="geometry" />
        </mxCell>
        <mxCell id="_y7poPwMKWdNdrLzsewM-6" value="" style="edgeStyle=orthogonalEdgeStyle;rounded=0;orthogonalLoop=1;jettySize=auto;html=1;labelBackgroundColor=none;strokeColor=#A8201A;fontColor=default;exitX=0.5;exitY=1;exitDx=0;exitDy=0;entryX=0.5;entryY=0;entryDx=0;entryDy=0;endArrow=block;endFill=1;" parent="_y7poPwMKWdNdrLzsewM-1" source="_y7poPwMKWdNdrLzsewM-9" target="Q2lX11om1wPqDBaOUwIq-5" edge="1">
          <mxGeometry relative="1" as="geometry">
            <mxPoint x="89.32999999999998" y="319" as="sourcePoint" />
            <mxPoint x="90" y="351" as="targetPoint" />
          </mxGeometry>
        </mxCell>
        <mxCell id="_y7poPwMKWdNdrLzsewM-8" value="" style="edgeStyle=orthogonalEdgeStyle;rounded=0;orthogonalLoop=1;jettySize=auto;html=1;labelBackgroundColor=none;strokeColor=#A8201A;fontColor=default;exitX=1;exitY=0.5;exitDx=0;exitDy=0;entryX=0;entryY=0.5;entryDx=0;entryDy=0;endArrow=block;endFill=1;" parent="_y7poPwMKWdNdrLzsewM-1" source="_y7poPwMKWdNdrLzsewM-5" target="_y7poPwMKWdNdrLzsewM-9" edge="1">
          <mxGeometry relative="1" as="geometry">
            <mxPoint x="30" y="190" as="sourcePoint" />
            <mxPoint x="89.32999999999998" y="260" as="targetPoint" />
          </mxGeometry>
        </mxCell>
        <mxCell id="_y7poPwMKWdNdrLzsewM-9" value="Détecter les cercles et les ArUcos" style="rounded=0;whiteSpace=wrap;html=1;labelBackgroundColor=none;fillColor=#FAE5C7;strokeColor=#0F8B8D;fontColor=#143642;" parent="_y7poPwMKWdNdrLzsewM-1" vertex="1">
          <mxGeometry x="200" y="110" width="120" height="60" as="geometry" />
        </mxCell>
        <mxCell id="Q2lX11om1wPqDBaOUwIq-5" value="Détecter les coins et bords de la table en fonction des ArUcos" style="rounded=0;whiteSpace=wrap;html=1;labelBackgroundColor=none;fillColor=#FAE5C7;strokeColor=#0F8B8D;fontColor=#143642;" vertex="1" parent="_y7poPwMKWdNdrLzsewM-1">
          <mxGeometry x="200" y="211" width="120" height="60" as="geometry" />
        </mxCell>
        <mxCell id="Q2lX11om1wPqDBaOUwIq-6" value="Afficher dans le canvas pour visualiser" style="rounded=0;whiteSpace=wrap;html=1;labelBackgroundColor=none;fillColor=#FAE5C7;strokeColor=#0F8B8D;fontColor=#143642;" vertex="1" parent="_y7poPwMKWdNdrLzsewM-1">
          <mxGeometry x="30" y="211.75" width="120" height="60" as="geometry" />
        </mxCell>
        <mxCell id="Q2lX11om1wPqDBaOUwIq-8" value="" style="edgeStyle=orthogonalEdgeStyle;rounded=0;orthogonalLoop=1;jettySize=auto;html=1;labelBackgroundColor=none;strokeColor=#A8201A;fontColor=default;exitX=0;exitY=0.5;exitDx=0;exitDy=0;entryX=1;entryY=0.5;entryDx=0;entryDy=0;endArrow=block;endFill=1;" edge="1" parent="_y7poPwMKWdNdrLzsewM-1" source="Q2lX11om1wPqDBaOUwIq-5" target="Q2lX11om1wPqDBaOUwIq-6">
          <mxGeometry relative="1" as="geometry">
            <mxPoint x="200" y="345.25" as="sourcePoint" />
            <mxPoint x="210" y="150" as="targetPoint" />
          </mxGeometry>
        </mxCell>
        <mxCell id="Q2lX11om1wPqDBaOUwIq-9" value="" style="edgeStyle=orthogonalEdgeStyle;rounded=0;orthogonalLoop=1;jettySize=auto;html=1;labelBackgroundColor=none;strokeColor=#A8201A;fontColor=default;exitX=0.5;exitY=0;exitDx=0;exitDy=0;entryX=0.5;entryY=1;entryDx=0;entryDy=0;endArrow=block;endFill=1;" edge="1" parent="_y7poPwMKWdNdrLzsewM-1" source="Q2lX11om1wPqDBaOUwIq-6" target="_y7poPwMKWdNdrLzsewM-5">
          <mxGeometry relative="1" as="geometry">
            <mxPoint x="210" y="251" as="sourcePoint" />
            <mxPoint x="160" y="251" as="targetPoint" />
          </mxGeometry>
        </mxCell>
        <mxCell id="Q2lX11om1wPqDBaOUwIq-11" value="" style="ellipse;html=1;shape=startState;fillColor=#ff4d4d;strokeColor=#B20000;rounded=0;labelBackgroundColor=none;fontColor=#ffffff;" vertex="1" parent="_y7poPwMKWdNdrLzsewM-1">
          <mxGeometry x="390" y="40" width="30" height="30" as="geometry" />
        </mxCell>
        <mxCell id="Q2lX11om1wPqDBaOUwIq-12" value="" style="edgeStyle=orthogonalEdgeStyle;html=1;verticalAlign=bottom;endArrow=open;endSize=8;strokeColor=#A8201A;rounded=0;labelBackgroundColor=none;fontColor=default;entryX=0.5;entryY=0;entryDx=0;entryDy=0;" edge="1" parent="_y7poPwMKWdNdrLzsewM-1" source="Q2lX11om1wPqDBaOUwIq-11">
          <mxGeometry relative="1" as="geometry">
            <mxPoint x="405" y="110" as="targetPoint" />
          </mxGeometry>
        </mxCell>
        <mxCell id="Q2lX11om1wPqDBaOUwIq-14" value="Appuyer sur un bouton pour déplacer le robot" style="rounded=0;whiteSpace=wrap;html=1;labelBackgroundColor=none;fillColor=#FAE5C7;strokeColor=#0F8B8D;fontColor=#143642;" vertex="1" parent="_y7poPwMKWdNdrLzsewM-1">
          <mxGeometry x="345" y="110" width="120" height="60" as="geometry" />
        </mxCell>
        <mxCell id="Q2lX11om1wPqDBaOUwIq-16" value="Envoyer un socket au serveur contenant l&#39;ordre" style="rounded=0;whiteSpace=wrap;html=1;labelBackgroundColor=none;fillColor=#FAE5C7;strokeColor=#0F8B8D;fontColor=#143642;" vertex="1" parent="_y7poPwMKWdNdrLzsewM-1">
          <mxGeometry x="345" y="211" width="120" height="60" as="geometry" />
        </mxCell>
        <mxCell id="Q2lX11om1wPqDBaOUwIq-21" value="" style="edgeStyle=orthogonalEdgeStyle;rounded=0;orthogonalLoop=1;jettySize=auto;html=1;labelBackgroundColor=none;strokeColor=#A8201A;fontColor=default;exitX=0.5;exitY=1;exitDx=0;exitDy=0;entryX=0.5;entryY=0;entryDx=0;entryDy=0;endArrow=block;endFill=1;" edge="1" parent="_y7poPwMKWdNdrLzsewM-1" source="Q2lX11om1wPqDBaOUwIq-14" target="Q2lX11om1wPqDBaOUwIq-16">
          <mxGeometry relative="1" as="geometry">
            <mxPoint x="270" y="180" as="sourcePoint" />
            <mxPoint x="270" y="221" as="targetPoint" />
          </mxGeometry>
        </mxCell>
        <mxCell id="Q2lX11om1wPqDBaOUwIq-20" style="edgeStyle=orthogonalEdgeStyle;rounded=0;orthogonalLoop=1;jettySize=auto;html=1;entryX=1;entryY=0.5;entryDx=0;entryDy=0;startArrow=open;startFill=0;endArrow=none;endFill=0;dashed=1;dashPattern=8 8;exitX=0;exitY=0.5;exitDx=0;exitDy=0;" edge="1" parent="_y7poPwMKWdNdrLzsewM-1" source="Q2lX11om1wPqDBaOUwIq-19" target="Q2lX11om1wPqDBaOUwIq-16">
          <mxGeometry relative="1" as="geometry">
            <mxPoint x="835" y="410" as="sourcePoint" />
            <mxPoint x="780" y="410" as="targetPoint" />
          </mxGeometry>
        </mxCell>
        <mxCell id="Q2lX11om1wPqDBaOUwIq-34" value="Exécuter l&#39;ordre dans le simulateur de la même façon que le robot" style="rounded=0;whiteSpace=wrap;html=1;labelBackgroundColor=none;fillColor=#FAE5C7;strokeColor=#0F8B8D;fontColor=#143642;" vertex="1" parent="_y7poPwMKWdNdrLzsewM-1">
          <mxGeometry x="335" y="322" width="120" height="60" as="geometry" />
        </mxCell>
        <mxCell id="Q2lX11om1wPqDBaOUwIq-19" value="Ordres" style="html=1;whiteSpace=wrap;rounded=0;labelBackgroundColor=none;fillColor=#FAE5C7;strokeColor=#0F8B8D;fontColor=#143642;" vertex="1" parent="_y7poPwMKWdNdrLzsewM-1">
          <mxGeometry x="480" y="226" width="50" height="31.5" as="geometry" />
        </mxCell>
        <mxCell id="Q2lX11om1wPqDBaOUwIq-33" style="edgeStyle=orthogonalEdgeStyle;rounded=0;orthogonalLoop=1;jettySize=auto;html=1;exitX=0.5;exitY=1;exitDx=0;exitDy=0;entryX=1;entryY=0.5;entryDx=0;entryDy=0;dashed=1;endArrow=open;endFill=0;dashPattern=8 8;" edge="1" parent="1" source="Q2lX11om1wPqDBaOUwIq-25" target="Q2lX11om1wPqDBaOUwIq-34">
          <mxGeometry relative="1" as="geometry" />
        </mxCell>
        <mxCell id="_y7poPwMKWdNdrLzsewM-22" value="&lt;font style=&quot;font-size: 16px;&quot;&gt;Robot&lt;/font&gt;" style="swimlane;whiteSpace=wrap;html=1;rounded=0;labelBackgroundColor=none;fillColor=#FAE5C7;strokeColor=#0F8B8D;fontColor=#143642;" parent="1" vertex="1">
          <mxGeometry x="734" y="188" width="430" height="451" as="geometry">
            <mxRectangle x="10" y="-30" width="80" height="30" as="alternateBounds" />
          </mxGeometry>
        </mxCell>
        <mxCell id="_y7poPwMKWdNdrLzsewM-23" value="[Non]" style="text;html=1;align=center;verticalAlign=middle;whiteSpace=wrap;rounded=0;fontColor=#143642;labelBackgroundColor=none;" parent="_y7poPwMKWdNdrLzsewM-22" vertex="1">
          <mxGeometry x="50" y="211" width="60" height="30" as="geometry" />
        </mxCell>
        <mxCell id="_y7poPwMKWdNdrLzsewM-25" value="Connexion au réseau" style="rounded=0;whiteSpace=wrap;html=1;labelBackgroundColor=none;fillColor=#FAE5C7;strokeColor=#0F8B8D;fontColor=#143642;" parent="_y7poPwMKWdNdrLzsewM-22" vertex="1">
          <mxGeometry x="80" y="111" width="120" height="60" as="geometry" />
        </mxCell>
        <mxCell id="_y7poPwMKWdNdrLzsewM-26" value="" style="edgeStyle=orthogonalEdgeStyle;html=1;verticalAlign=bottom;endArrow=open;endSize=8;strokeColor=#A8201A;rounded=0;fontColor=default;fillColor=#FAE5C7;entryX=0.5;entryY=0;entryDx=0;entryDy=0;labelBackgroundColor=none;" parent="_y7poPwMKWdNdrLzsewM-22" source="_y7poPwMKWdNdrLzsewM-24" target="_y7poPwMKWdNdrLzsewM-25" edge="1">
          <mxGeometry relative="1" as="geometry">
            <mxPoint x="70" y="430" as="targetPoint" />
            <mxPoint x="140" y="52" as="sourcePoint" />
          </mxGeometry>
        </mxCell>
        <mxCell id="_y7poPwMKWdNdrLzsewM-27" value="Toujours connecté ?" style="rhombus;whiteSpace=wrap;html=1;labelBackgroundColor=none;fillColor=#FAE5C7;strokeColor=#0F8B8D;fontColor=#143642;rounded=0;" parent="_y7poPwMKWdNdrLzsewM-22" vertex="1">
          <mxGeometry x="95" y="231" width="90" height="90" as="geometry" />
        </mxCell>
        <mxCell id="_y7poPwMKWdNdrLzsewM-28" style="edgeStyle=orthogonalEdgeStyle;rounded=0;orthogonalLoop=1;jettySize=auto;html=1;exitX=0;exitY=0.5;exitDx=0;exitDy=0;entryX=0;entryY=0.5;entryDx=0;entryDy=0;strokeColor=#A8201A;fontColor=default;fillColor=#FAE5C7;labelBackgroundColor=none;" parent="_y7poPwMKWdNdrLzsewM-22" source="_y7poPwMKWdNdrLzsewM-27" target="_y7poPwMKWdNdrLzsewM-25" edge="1">
          <mxGeometry relative="1" as="geometry" />
        </mxCell>
        <mxCell id="_y7poPwMKWdNdrLzsewM-29" style="edgeStyle=orthogonalEdgeStyle;rounded=0;orthogonalLoop=1;jettySize=auto;html=1;exitX=0.5;exitY=1;exitDx=0;exitDy=0;entryX=0.5;entryY=0;entryDx=0;entryDy=0;strokeColor=#A8201A;fontColor=default;fillColor=#FAE5C7;endArrow=block;endFill=1;labelBackgroundColor=none;" parent="_y7poPwMKWdNdrLzsewM-22" source="_y7poPwMKWdNdrLzsewM-25" target="_y7poPwMKWdNdrLzsewM-27" edge="1">
          <mxGeometry relative="1" as="geometry">
            <mxPoint x="200" y="396" as="sourcePoint" />
            <mxPoint x="390" y="450" as="targetPoint" />
          </mxGeometry>
        </mxCell>
        <mxCell id="_y7poPwMKWdNdrLzsewM-30" style="edgeStyle=orthogonalEdgeStyle;rounded=0;orthogonalLoop=1;jettySize=auto;html=1;exitX=0;exitY=1;exitDx=0;exitDy=0;strokeColor=#A8201A;fontColor=default;fillColor=#FAE5C7;endArrow=block;endFill=1;labelBackgroundColor=none;entryX=0;entryY=0;entryDx=0;entryDy=0;" parent="_y7poPwMKWdNdrLzsewM-22" source="_y7poPwMKWdNdrLzsewM-27" target="_y7poPwMKWdNdrLzsewM-35" edge="1">
          <mxGeometry relative="1" as="geometry">
            <mxPoint x="120" y="420" as="targetPoint" />
          </mxGeometry>
        </mxCell>
        <mxCell id="_y7poPwMKWdNdrLzsewM-31" value="[Oui]" style="text;html=1;align=center;verticalAlign=middle;whiteSpace=wrap;rounded=0;fontColor=#143642;labelBackgroundColor=none;" parent="_y7poPwMKWdNdrLzsewM-22" vertex="1">
          <mxGeometry x="80" y="321" width="40" height="30" as="geometry" />
        </mxCell>
        <mxCell id="_y7poPwMKWdNdrLzsewM-32" value="[Oui]" style="text;html=1;align=center;verticalAlign=middle;whiteSpace=wrap;rounded=0;fontColor=#143642;labelBackgroundColor=none;" parent="_y7poPwMKWdNdrLzsewM-22" vertex="1">
          <mxGeometry x="185" y="377" width="40" height="21" as="geometry" />
        </mxCell>
        <mxCell id="_y7poPwMKWdNdrLzsewM-33" style="edgeStyle=orthogonalEdgeStyle;rounded=0;orthogonalLoop=1;jettySize=auto;html=1;exitX=1;exitY=0;exitDx=0;exitDy=0;strokeColor=#A8201A;fontColor=default;fillColor=#FAE5C7;endArrow=block;endFill=1;labelBackgroundColor=none;entryX=1;entryY=1;entryDx=0;entryDy=0;" parent="_y7poPwMKWdNdrLzsewM-22" source="_y7poPwMKWdNdrLzsewM-35" target="_y7poPwMKWdNdrLzsewM-27" edge="1">
          <mxGeometry relative="1" as="geometry">
            <mxPoint x="160" y="420" as="sourcePoint" />
            <mxPoint x="150" y="410" as="targetPoint" />
          </mxGeometry>
        </mxCell>
        <mxCell id="_y7poPwMKWdNdrLzsewM-34" value="[Non]" style="text;html=1;align=center;verticalAlign=middle;whiteSpace=wrap;rounded=0;fontColor=#143642;labelBackgroundColor=none;" parent="_y7poPwMKWdNdrLzsewM-22" vertex="1">
          <mxGeometry x="155" y="340" width="60" height="30" as="geometry" />
        </mxCell>
        <mxCell id="_y7poPwMKWdNdrLzsewM-35" value="Ordre reçu ?" style="rhombus;whiteSpace=wrap;html=1;labelBackgroundColor=none;fillColor=#FAE5C7;strokeColor=#0F8B8D;fontColor=#143642;rounded=0;" parent="_y7poPwMKWdNdrLzsewM-22" vertex="1">
          <mxGeometry x="95" y="355" width="90" height="90" as="geometry" />
        </mxCell>
        <mxCell id="_y7poPwMKWdNdrLzsewM-38" style="edgeStyle=orthogonalEdgeStyle;rounded=0;orthogonalLoop=1;jettySize=auto;html=1;exitX=0.5;exitY=0;exitDx=0;exitDy=0;entryX=0.5;entryY=1;entryDx=0;entryDy=0;endArrow=block;endFill=1;labelBackgroundColor=none;strokeColor=#A8201A;fontColor=default;" parent="_y7poPwMKWdNdrLzsewM-22" source="_y7poPwMKWdNdrLzsewM-39" target="_y7poPwMKWdNdrLzsewM-43" edge="1">
          <mxGeometry relative="1" as="geometry">
            <mxPoint x="630" y="329.5" as="targetPoint" />
          </mxGeometry>
        </mxCell>
        <mxCell id="_y7poPwMKWdNdrLzsewM-39" value="Mettre la puissance demandée aux deux moteurs" style="rounded=0;whiteSpace=wrap;html=1;labelBackgroundColor=none;fillColor=#FAE5C7;strokeColor=#0F8B8D;fontColor=#143642;" parent="_y7poPwMKWdNdrLzsewM-22" vertex="1">
          <mxGeometry x="300" y="370" width="120" height="60" as="geometry" />
        </mxCell>
        <mxCell id="_y7poPwMKWdNdrLzsewM-42" value="" style="edgeStyle=orthogonalEdgeStyle;rounded=0;orthogonalLoop=1;jettySize=auto;html=1;strokeColor=#A8201A;fontColor=default;fillColor=#FAE5C7;endArrow=block;endFill=1;labelBackgroundColor=none;" parent="_y7poPwMKWdNdrLzsewM-22" source="_y7poPwMKWdNdrLzsewM-43" target="_y7poPwMKWdNdrLzsewM-44" edge="1">
          <mxGeometry relative="1" as="geometry" />
        </mxCell>
        <mxCell id="_y7poPwMKWdNdrLzsewM-43" value="Mettre le sens demandé aux deux moteurs" style="rounded=0;whiteSpace=wrap;html=1;labelBackgroundColor=none;fillColor=#FAE5C7;strokeColor=#0F8B8D;fontColor=#143642;" parent="_y7poPwMKWdNdrLzsewM-22" vertex="1">
          <mxGeometry x="300" y="262" width="120" height="60" as="geometry" />
        </mxCell>
        <mxCell id="_y7poPwMKWdNdrLzsewM-44" value="Exécuter la requête pendant la durée indiquée" style="whiteSpace=wrap;html=1;fillColor=#FAE5C7;strokeColor=#0F8B8D;fontColor=#143642;rounded=0;labelBackgroundColor=none;" parent="_y7poPwMKWdNdrLzsewM-22" vertex="1">
          <mxGeometry x="300" y="151" width="120" height="60" as="geometry" />
        </mxCell>
        <mxCell id="_y7poPwMKWdNdrLzsewM-45" value="Exécuter l&#39;ordre" style="rounded=0;whiteSpace=wrap;html=1;labelBackgroundColor=none;fillColor=#FAE5C7;strokeColor=#0F8B8D;fontColor=#143642;" parent="_y7poPwMKWdNdrLzsewM-22" vertex="1">
          <mxGeometry x="300" y="51" width="120" height="60" as="geometry" />
        </mxCell>
        <mxCell id="_y7poPwMKWdNdrLzsewM-59" style="edgeStyle=orthogonalEdgeStyle;rounded=0;orthogonalLoop=1;jettySize=auto;html=1;exitX=1;exitY=0.5;exitDx=0;exitDy=0;entryX=0;entryY=0.5;entryDx=0;entryDy=0;strokeColor=#A8201A;fontColor=default;fillColor=#FAE5C7;endArrow=block;endFill=1;labelBackgroundColor=none;" parent="_y7poPwMKWdNdrLzsewM-22" source="_y7poPwMKWdNdrLzsewM-35" target="_y7poPwMKWdNdrLzsewM-39" edge="1">
          <mxGeometry relative="1" as="geometry">
            <mxPoint x="180" y="440" as="sourcePoint" />
            <mxPoint x="290" y="400" as="targetPoint" />
          </mxGeometry>
        </mxCell>
        <mxCell id="_y7poPwMKWdNdrLzsewM-61" value="" style="edgeStyle=orthogonalEdgeStyle;rounded=0;orthogonalLoop=1;jettySize=auto;html=1;endArrow=block;endFill=1;strokeColor=#A8201A;labelBackgroundColor=none;fontColor=default;exitX=0;exitY=0.5;exitDx=0;exitDy=0;entryX=1;entryY=0.5;entryDx=0;entryDy=0;" parent="_y7poPwMKWdNdrLzsewM-22" source="_y7poPwMKWdNdrLzsewM-45" target="_y7poPwMKWdNdrLzsewM-27" edge="1">
          <mxGeometry relative="1" as="geometry">
            <mxPoint x="480" y="171" as="sourcePoint" />
            <mxPoint x="310" y="351" as="targetPoint" />
          </mxGeometry>
        </mxCell>
        <mxCell id="_y7poPwMKWdNdrLzsewM-67" style="edgeStyle=orthogonalEdgeStyle;rounded=0;orthogonalLoop=1;jettySize=auto;html=1;exitX=0.5;exitY=0;exitDx=0;exitDy=0;entryX=0.5;entryY=1;entryDx=0;entryDy=0;endArrow=block;endFill=1;labelBackgroundColor=none;strokeColor=#A8201A;fontColor=default;" parent="_y7poPwMKWdNdrLzsewM-22" source="_y7poPwMKWdNdrLzsewM-44" target="_y7poPwMKWdNdrLzsewM-45" edge="1">
          <mxGeometry relative="1" as="geometry">
            <mxPoint x="370" y="332" as="targetPoint" />
            <mxPoint x="370" y="380" as="sourcePoint" />
          </mxGeometry>
        </mxCell>
        <mxCell id="_y7poPwMKWdNdrLzsewM-24" value="" style="ellipse;html=1;shape=startState;fillColor=#ff4d4d;strokeColor=#B20000;rounded=0;labelBackgroundColor=none;fontColor=#ffffff;" parent="_y7poPwMKWdNdrLzsewM-22" vertex="1">
          <mxGeometry x="125" y="51" width="30" height="30" as="geometry" />
        </mxCell>
        <mxCell id="_y7poPwMKWdNdrLzsewM-65" style="edgeStyle=orthogonalEdgeStyle;rounded=0;orthogonalLoop=1;jettySize=auto;html=1;entryX=1;entryY=0.5;entryDx=0;entryDy=0;startArrow=open;startFill=0;endArrow=none;endFill=0;dashed=1;dashPattern=8 8;exitX=0;exitY=0.5;exitDx=0;exitDy=0;" parent="_y7poPwMKWdNdrLzsewM-22" source="_y7poPwMKWdNdrLzsewM-35" edge="1">
          <mxGeometry relative="1" as="geometry">
            <mxPoint x="160" y="451" as="sourcePoint" />
            <mxPoint x="40" y="400" as="targetPoint" />
          </mxGeometry>
        </mxCell>
        <mxCell id="Q2lX11om1wPqDBaOUwIq-24" value="" style="edgeStyle=orthogonalEdgeStyle;rounded=0;orthogonalLoop=1;jettySize=auto;html=1;entryX=1;entryY=0.5;entryDx=0;entryDy=0;startArrow=open;startFill=0;endArrow=none;endFill=0;dashed=1;dashPattern=8 8;exitX=0;exitY=0.5;exitDx=0;exitDy=0;" edge="1" parent="1" source="Q2lX11om1wPqDBaOUwIq-25" target="Q2lX11om1wPqDBaOUwIq-19">
          <mxGeometry relative="1" as="geometry">
            <mxPoint x="544" y="580" as="sourcePoint" />
            <mxPoint x="469" y="533" as="targetPoint" />
          </mxGeometry>
        </mxCell>
      </root>
    </mxGraphModel>
  </diagram>
</mxfile>
